<svg width="848" height="851" viewBox="0 0 848 851" fill="none" xmlns="http://www.w3.org/2000/svg">
<path opacity="0.5" d="M489.431 425.5C489.431 461.954 460.102 491.5 423.931 491.5C387.76 491.5 358.431 461.954 358.431 425.5C358.431 389.046 387.76 359.5 423.931 359.5C460.102 359.5 489.431 389.046 489.431 425.5Z" stroke="#393F48"/>
<path opacity="0.5" d="M553.431 425C553.431 497.075 495.227 555.5 423.431 555.5C351.636 555.5 293.431 497.075 293.431 425C293.431 352.925 351.636 294.5 423.431 294.5C495.227 294.5 553.431 352.925 553.431 425Z" stroke="#393F48" stroke-opacity="0.5"/>
<path opacity="0.5" d="M620.431 425.257C620.431 534.477 532.23 623.013 423.431 623.013C314.633 623.013 226.431 534.477 226.431 425.257C226.431 316.037 314.633 227.5 423.431 227.5C532.23 227.5 620.431 316.037 620.431 425.257Z" stroke="#393F48" stroke-opacity="0.4"/>
<path opacity="0.5" d="M695.744 424.701C695.744 575.588 573.894 697.902 423.588 697.902C273.282 697.902 151.431 575.588 151.431 424.701C151.431 273.815 273.282 151.5 423.588 151.5C573.894 151.5 695.744 273.815 695.744 424.701Z" stroke="#393F48" stroke-opacity="0.3"/>
<path opacity="0.5" d="M765.065 424.628C765.065 614.135 612.026 767.757 423.248 767.757C234.47 767.757 81.4313 614.135 81.4313 424.628C81.4313 235.122 234.47 81.5 423.248 81.5C612.026 81.5 765.065 235.122 765.065 424.628Z" stroke="#393F48" stroke-opacity="0.2"/>
<path opacity="0.5" d="M846.654 425.211C846.654 659.762 657.239 849.899 423.588 849.899C189.937 849.899 0.522102 659.762 0.522102 425.211C0.522102 190.66 189.937 0.522102 423.588 0.522102C657.239 0.522102 846.654 190.66 846.654 425.211Z" stroke="#393F48" stroke-opacity="0.1" stroke-width="1.0442"/>
</svg>
